# xmcd
#
# Track frame offsets:
#	150
#	14415
#	25407
#	40510
#	54457
#	65370
#	78780
#	88850
#	99707
#	114162
#	127732
#	139982
#	150532
#	167685
#
# Disc length: 2368 seconds
#
# Revision: 1
# Processed by: cddbd v1.5.1PL0 Copyright (c) Steve Scherf et al.
# Submitted via: audiograbber 1.82.01
#
DISCID=a6093e0e
DTITLE=Freddy Qunn und Bobby Bare - Freddy Qunn und Bobby Bare
DYEAR=1900
DGENRE=
TTITLE0=A Million Miles To The City
TTITLE1=Some Broken Hearts Never Mend
TTITLE2=For The Good Times
TTITLE3=Take Me Home,Country Roads
TTITLE4=Hello, Darlin'
TTITLE5=It's Country Time
TTITLE6=Help Me Make It Through The Night
TTITLE7=Tom Dooley
TTITLE8=Leaving On A Jetplane
TTITLE9=Green Green Grass Of Home
TTITLE10=RosesAre Red My Love
TTITLE11=The Yellow Rose Of Texas
TTITLE12=Sylvia's Mother
TTITLE13=Oh My Darling Clementine
EXTD=
EXTT0=
EXTT1=
EXTT2=
EXTT3=
EXTT4=
EXTT5=
EXTT6=
EXTT7=
EXTT8=
EXTT9=
EXTT10=
EXTT11=
EXTT12=
EXTT13=
PLAYORDER=
